<?xml version="1.0" encoding="UTF-8"?>
<svg width="156px" height="36px" viewBox="0 0 156 36" version="1.1" xmlns="http://www.w3.org/2000/svg" xmlns:xlink="http://www.w3.org/1999/xlink">
    <title>logo-1</title>
    <defs>
        <linearGradient x1="26.0425468%" y1="88.2116718%" x2="77.3872173%" y2="13.745266%" id="linearGradient-1">
            <stop stop-color="#FF6494" offset="0%"></stop>
            <stop stop-color="#FF7A7A" offset="100%"></stop>
        </linearGradient>
    </defs>
    <g id="Symbols" stroke="none" stroke-width="1" fill="none" fill-rule="evenodd">
        <g id="navigation-/-V1" transform="translate(-36.000000, -54.000000)" fill-rule="nonzero">
            <g id="logo-1" transform="translate(36.000000, 54.000000)">
                <path d="M25.4432196,29.7016026 C25.0847988,28.2471911 24.3074448,26.8679314 23.1158121,25.7362314 L17.0499953,19.9754918 C15.9589614,18.9393307 15.914478,17.2148986 16.950639,16.1238646 C16.982898,16.0898972 17.0160278,16.0567674 17.0499953,16.0245082 L23.1158121,10.2637687 C23.9886652,9.43481524 24.6392436,8.47540958 25.065718,7.44983368 C25.1695548,7.20012946 25.2953886,6.81779095 25.4432196,6.3028182 C25.8752671,6.71313609 26.1993027,7.0208745 26.4153264,7.22603344 C27.4374835,8.19678167 28.9707192,9.65290399 31.0150333,11.5944004 C34.7342306,15.1265426 34.7342306,20.8734574 31.0150333,24.4100203 L25.4432196,29.7016026 Z M13.6525729,34.7235218 L12.2561283,33.3973107 C12.2421639,33.3840486 12.2286649,33.3707865 12.2137695,33.3575244 C10.4360956,31.6467121 9.45811892,29.3921532 9.45811892,26.9872904 C9.45811892,25.1055544 10.0589073,23.3090663 11.1766867,21.7967831 C11.5532347,21.287338 12.2714741,21.1796035 12.7809192,21.5561516 C12.8187809,21.5841364 12.8548837,21.6144258 12.8890227,21.6468478 C12.9327024,21.688411 12.9732637,21.7269323 13.0106665,21.7624539 C14.5983738,23.2703084 16.979935,25.5320901 20.1553497,28.5477988 C21.9474534,30.2541905 21.9474534,33.0215509 20.1553497,34.7235218 C18.3590565,36.4254928 15.4446767,36.4254928 13.6525729,34.7235218 Z M12.2561283,2.60710996 L13.6525729,1.27647817 C15.4446767,-0.425492725 18.3590565,-0.425492725 20.1553497,1.27647817 C21.9474534,2.97844907 21.9474534,5.75023025 20.1553497,7.45220114 C16.9196031,10.5252075 14.4927932,12.8299622 12.8749199,14.3664654 C12.8593116,14.3812887 12.8430664,14.3967168 12.8261845,14.4127496 L12.8261604,14.4127243 C12.3975643,14.8197643 11.7201473,14.8022898 11.3131072,14.3736936 C11.2855916,14.3447209 11.2597202,14.31423 11.2356143,14.2823642 C10.0800363,12.7547915 9.45811892,10.9309164 9.45811892,9.01270953 C9.45811892,6.61226746 10.4360956,4.3532879 12.2137695,2.6468963 C12.2286649,2.63363419 12.2421639,2.62037208 12.2561283,2.60710996 Z M2.79288909,24.4100203 C-0.930963031,20.8734574 -0.930963031,15.1265426 2.79288909,11.5944004 L5.27390556,9.2381654 C5.31564231,11.695697 6.07178771,14.0421645 7.44777562,16.065491 C8.24637433,17.2397935 8.24091549,18.7842303 7.43403564,19.9528582 C7.43370991,19.9533296 7.43339956,19.9537832 7.43310448,19.954219 C6.06474068,21.9744818 5.31551177,24.3164097 5.27390556,26.7662553 L2.79288909,24.4100203 Z" id="Combined-Shape" fill="url(#linearGradient-1)"></path>
                <g id="Group-30" transform="translate(53.011495, 4.500000)" fill="#1C1D1F">
                    <path d="M10.1038003,21.882835 L10.1038003,25.7973533 C7.50248862,25.7973533 5.27759417,24.8899268 3.42911691,23.0684505 C1.58063964,21.2469741 0.653040151,19.0479554 0.653040151,16.4846413 L0.653040151,0.548379125 C0.653040151,0.548379125 2.10493502,0.541755576 2.63595213,0.541755576 L2.689726,0.541755576 C3.22074311,0.541755576 4.67263799,0.548379125 4.67263799,0.548379125 C4.67263799,0.548379125 4.66636437,12.500355 4.67263799,16.4846413 C4.67487855,17.9599268 5.19693335,19.2731561 6.25224583,20.3196771 C7.30755829,21.3595744 8.59813151,21.882835 10.1038003,21.882835" id="Fill-1"></path>
                    <path d="M18.0754669,0.54021008 L18.0754669,4.50197636 L16.0898664,4.50197636 L16.0571539,4.50197636 L14.0549729,4.50197636 L14.0549729,0.54021008 L18.0754669,0.54021008 Z M18.0754669,7.17038404 L18.0754669,25.7988987 L16.0898664,25.7988987 L16.0571539,25.7988987 L14.0549729,25.7988987 L14.0549729,7.17038404 L18.0754669,7.17038404 Z" id="Fill-4"></path>
                    <path d="M25.8805001,25.798987 L23.8948995,25.798987 L23.8456067,25.798987 L21.8600061,25.798987 L21.8600061,14.9482868 C21.8600061,12.8137373 22.6312132,10.9812217 24.1736275,9.4502984 C25.7164898,7.93041437 27.5761699,7.17003078 29.7535641,7.17003078 C32.3571164,7.17003078 34.3207593,8.02226092 35.6449412,9.72539652 C36.9574721,8.02226092 38.9157378,7.17003078 41.519738,7.17003078 C43.6966841,7.17003078 45.5568124,7.93041437 47.0992267,9.4502984 C48.6416409,10.9812217 49.4132962,12.8137373 49.4132962,14.9482868 L49.4132962,25.798987 L47.4272473,25.798987 L47.3945348,25.798987 L45.4089342,25.798987 L45.4089342,15.0030415 C45.4089342,14.0170156 45.0508897,13.0508604 44.362584,12.3346338 C43.591825,11.5331842 42.6445085,11.1322386 41.519738,11.1322386 C40.4075148,11.1322386 39.466472,11.5318595 38.695713,12.3319844 C38.0069591,13.0473278 37.6466741,14.0130415 37.6466741,14.9990674 L37.6466741,25.798987 L35.6610734,25.798987 L35.6283609,25.798987 L33.62618,25.798987 L33.62618,14.9990674 C33.62618,14.0130415 33.266343,13.0477694 32.5775893,12.332426 C31.8068303,11.5323011 30.8653392,11.1322386 29.7535641,11.1322386 C28.6413409,11.1322386 27.7002979,11.5318595 26.9295389,12.3319844 C26.2407852,13.0473278 25.8805001,14.0130415 25.8805001,14.9990674 L25.8805001,25.798987 Z" id="Fill-7"></path>
                    <path d="M62.4640473,11.1644291 C60.9543454,11.1644291 59.6687014,11.6876896 58.6075635,12.7328858 C57.5571803,13.7789652 57.0319887,15.045388 57.0319887,16.5330374 C57.0319887,18.0100892 57.5571803,19.2716548 58.6075635,20.3172926 C59.6687014,21.3629304 60.9543454,21.8857493 62.4640473,21.8857493 C63.9625461,21.8857493 65.2428127,21.3629304 66.3039507,20.3172926 C67.3650886,19.2716548 67.8961057,18.0100892 67.8961057,16.5330374 C67.8961057,15.045388 67.3650886,13.7789652 66.3039507,12.7328858 C65.2428127,11.6876896 63.9625461,11.1644291 62.4640473,11.1644291 Z M55.0463881,0.540254238 L57.0319887,0.540254238 L57.0319887,8.78745763 C58.2683399,7.7095852 60.0787273,7.17042819 62.4640473,7.17042819 C65.0675994,7.17042819 67.2938382,8.08138715 69.1432118,9.90330509 C70.991689,11.725223 71.9165998,13.9189429 71.9165998,16.4844648 C71.9165998,19.0504282 70.991689,21.2445897 69.1432118,23.066066 C67.2938382,24.8884255 65.0675994,25.7989429 62.4640473,25.7989429 C59.8600469,25.7989429 57.6391854,24.8932827 55.801463,23.0824041 C53.9520895,21.2821232 53.0222494,19.0990009 53.0114946,16.5330374 L53.0114946,0.540254238 L54.9970953,0.540254238 L55.0463881,0.540254238 Z" id="Fill-9"></path>
                    <path d="M79.312182,0.54021008 L79.312182,4.50197636 L77.3265815,4.50197636 L77.293869,4.50197636 L75.2916881,4.50197636 L75.2916881,0.54021008 L79.312182,0.54021008 Z M79.312182,7.17038404 L79.312182,25.7988987 L77.3265815,25.7988987 L77.293869,25.7988987 L75.2916881,25.7988987 L75.2916881,7.17038404 L79.312182,7.17038404 Z" id="Fill-12"></path>
                    <path d="M96.9645794,18.4156271 C96.7042241,19.1115415 96.2946464,19.745636 95.7246432,20.3148199 C94.662609,21.3613407 93.5512821,21.8846013 92.0411322,21.8846013 C90.5309823,21.8846013 89.2448902,21.3635487 88.1873372,20.3170277 C87.1342652,19.2705067 86.6099699,18.0120321 86.6099699,16.5327725 C86.6099699,15.0446815 87.1342652,13.7773756 88.1873372,12.7308546 C89.2448902,11.6887493 90.5309823,11.163281 92.0411322,11.163281 C93.5512821,11.163281 94.662609,11.6865415 95.7246432,12.7286467 C96.2717926,13.2748689 96.672856,13.8829108 96.9345556,14.54924 L101.12847,14.54924 C100.770874,12.7970901 99.9118364,11.2467377 98.5477722,9.90259857 C96.6970544,8.07891437 94.6446844,7.17148796 92.0411322,7.17148796 C89.4375799,7.17148796 87.210445,8.08112222 85.3642083,9.90480642 C83.5134905,11.7240749 82.5903721,13.918678 82.5903721,16.4841998 C82.5903721,19.0497217 83.5134905,21.2443248 85.3642083,23.0680089 C87.210445,24.8872774 89.4375799,25.7969117 92.0411322,25.7969117 C94.6446844,25.7969117 96.6970544,24.8850696 98.5477722,23.0658011 C99.9113882,21.7185709 100.770426,20.167777 101.128022,18.4156271 L96.9645794,18.4156271 Z" id="Fill-15"></path>
                </g>
            </g>
        </g>
    </g>
</svg>